<svg width="128" height="128" viewBox="0 0 128 128" fill="none" xmlns="http://www.w3.org/2000/svg">
<path fill-rule="evenodd" clip-rule="evenodd" d="M87.5266 4.40861L85.988 8.77066C95.3224 11.9006 103.76 17.1496 110.604 24.0847C117.448 31.0198 122.503 39.4421 125.351 48.6569C128.2 57.8717 128.76 67.6148 126.986 77.0824C125.213 86.5499 121.155 95.4705 115.149 103.108C109.143 110.746 101.361 116.882 92.444 121.01C83.5271 125.138 73.7312 127.139 63.8647 126.849C53.9982 126.559 44.3438 123.986 35.6981 119.342C27.0523 114.698 19.663 108.116 14.1398 100.14L11.0324 102.185C4.06124 91.868 0 79.4871 0 66.1739C0 30.1793 29.6868 1 66.3073 1C73.7283 1 80.8645 2.19824 87.5266 4.40861ZM123.547 66.1739C123.547 97.7865 97.9199 123.414 66.3073 123.414C34.6947 123.414 9.06767 97.7865 9.06767 66.1739C9.06767 34.5613 34.6947 8.93421 66.3073 8.93421C97.9199 8.93421 123.547 34.5613 123.547 66.1739Z" fill="white"/>
<path fill-rule="evenodd" clip-rule="evenodd" d="M65.7406 120.013C95.7882 120.013 120.147 95.6548 120.147 65.6072C120.147 35.5595 95.7882 11.2011 65.7406 11.2011C35.693 11.2011 11.3346 35.5595 11.3346 65.6072C11.3346 76.6686 14.6356 86.959 20.3063 95.547L24.3947 91.4586L36.2707 103.335V57.673H51.0057V102.195L61.7508 91.45L72.17 101.869L55.0717 118.968C58.5217 119.653 62.0891 120.013 65.7406 120.013ZM62.907 35.0038C68.2279 35.0038 72.5414 30.6903 72.5414 25.3694C72.5414 20.0484 68.2279 15.735 62.907 15.735C57.586 15.735 53.2726 20.0484 53.2726 25.3694C53.2726 30.6903 57.586 35.0038 62.907 35.0038ZM85.0094 48.0386C85.0094 53.3595 80.6959 57.673 75.375 57.673C70.0541 57.673 65.7406 53.3595 65.7406 48.0386C65.7406 42.7176 70.0541 38.4042 75.375 38.4042C80.6959 38.4042 85.0094 42.7176 85.0094 48.0386ZM83.3092 84.876C88.6302 84.876 92.9436 80.5625 92.9436 75.2416C92.9436 69.9206 88.6302 65.6072 83.3092 65.6072C77.9883 65.6072 73.6748 69.9206 73.6748 75.2416C73.6748 80.5625 77.9883 84.876 83.3092 84.876ZM91.8102 101.311C91.8102 106.632 87.4967 110.946 82.1758 110.946C76.8548 110.946 72.5414 106.632 72.5414 101.311C72.5414 95.9902 76.8548 91.6767 82.1758 91.6767C87.4967 91.6767 91.8102 95.9902 91.8102 101.311Z" fill="white"/>
</svg>
